<svg width="125" height="49" viewBox="0 0 125 49" fill="none" xmlns="http://www.w3.org/2000/svg">
<g style="mix-blend-mode:luminosity">
<path fill-rule="evenodd" clip-rule="evenodd" d="M76.6508 38.4255C69.4708 43.116 59.0639 45.6185 50.1036 45.6185C37.54 45.6185 26.2295 41.5 17.6726 34.6503C17.0003 34.1116 17.6027 33.3776 18.4094 33.797C27.644 38.559 39.062 41.4238 50.8566 41.4238C58.8111 41.4238 67.5615 39.9652 75.6074 36.9383C76.8229 36.4807 77.8394 37.6438 76.6508 38.4255Z" fill="#FF9900"/>
<path fill-rule="evenodd" clip-rule="evenodd" d="M79.6359 35.3987C78.7215 34.3595 73.5692 34.9077 71.2565 35.1508C70.552 35.2271 70.4444 34.6837 71.079 34.2928C75.1827 31.7331 81.9162 32.4719 82.7015 33.3299C83.4867 34.1927 82.4971 40.1749 78.6409 43.0302C78.0493 43.4687 77.4846 43.2352 77.7481 42.6536C78.614 40.7374 80.5555 36.4426 79.6359 35.3987Z" fill="#FF9900"/>
<path fill-rule="evenodd" clip-rule="evenodd" d="M71.4182 16.2223V13.7341C71.4182 13.3575 71.7409 13.1049 72.1282 13.1049H84.6972C85.1006 13.1049 85.4233 13.3623 85.4233 13.7341V15.8648C85.4179 16.2223 85.0791 16.6894 84.4767 17.4283L77.9636 25.6699C80.3838 25.6175 82.9385 25.9369 85.1328 27.0332C85.6276 27.2811 85.7621 27.6433 85.7998 28.0008V30.6559C85.7998 31.0182 85.348 31.4424 84.8747 31.2231C81.0077 29.4261 75.8715 29.2307 71.5957 31.2422C71.1601 31.4519 70.7029 31.0325 70.7029 30.6702V28.1486C70.7029 27.7434 70.7083 27.0523 71.1655 26.4374L78.7112 16.8467H72.1443C71.7409 16.8467 71.4182 16.5941 71.4182 16.2223Z" fill="black"/>
<path fill-rule="evenodd" clip-rule="evenodd" d="M25.5684 31.7475H21.7444C21.3787 31.7237 21.0883 31.4806 21.0614 31.1707V13.777C21.0614 13.429 21.3895 13.1526 21.7982 13.1526H25.364C25.7351 13.1669 26.0309 13.4195 26.0578 13.7341V16.0078H26.1277C27.0582 13.8104 28.8061 12.7855 31.1618 12.7855C33.5551 12.7855 35.0503 13.8104 36.1259 16.0078C37.051 13.8104 39.1539 12.7855 41.4074 12.7855C43.0101 12.7855 44.7635 13.3718 45.8337 14.6874C47.0439 16.1508 46.7964 18.2768 46.7964 20.1406L46.7911 31.1183C46.7911 31.4663 46.463 31.7475 46.0543 31.7475H42.2357C41.8538 31.7237 41.5473 31.452 41.5473 31.1183V21.8995C41.5473 21.1654 41.6225 19.335 41.4397 18.639C41.1546 17.4712 40.2995 17.1423 39.1916 17.1423C38.2665 17.1423 37.2984 17.6905 36.9058 18.5675C36.5132 19.4446 36.5508 20.9128 36.5508 21.8995V31.1183C36.5508 31.4663 36.2228 31.7475 35.814 31.7475H31.9954C31.6082 31.7237 31.307 31.452 31.307 31.1183L31.3016 21.8995C31.3016 19.9594 31.662 17.1042 28.9459 17.1042C26.1976 17.1042 26.3052 19.8879 26.3052 21.8995V31.1183C26.3052 31.4663 25.9771 31.7475 25.5684 31.7475Z" fill="black"/>
<path fill-rule="evenodd" clip-rule="evenodd" d="M96.2442 12.7855C101.918 12.7855 104.989 17.1042 104.989 22.5954C104.989 27.9008 101.596 32.1098 96.2442 32.1098C90.6723 32.1098 87.639 27.7911 87.639 22.4095C87.639 16.9945 90.71 12.7855 96.2442 12.7855ZM96.2765 16.3367C93.4583 16.3367 93.2808 19.7402 93.2808 21.8613C93.2808 23.9873 93.2431 28.5252 96.2442 28.5252C99.2077 28.5252 99.3475 24.8644 99.3475 22.6336C99.3475 21.1654 99.2776 19.4113 98.7774 18.0194C98.3471 16.8086 97.492 16.3367 96.2765 16.3367Z" fill="black"/>
<path fill-rule="evenodd" clip-rule="evenodd" d="M112.347 31.7475H108.539C108.157 31.7237 107.851 31.452 107.851 31.1183L107.845 13.7198C107.878 13.4004 108.195 13.1526 108.582 13.1526H112.126C112.46 13.1669 112.734 13.3671 112.809 13.6388V16.2986H112.879C113.95 13.92 115.45 12.7855 118.091 12.7855C119.807 12.7855 121.479 13.3337 122.555 14.8352C123.555 16.2271 123.555 18.5675 123.555 20.2502V31.1993C123.512 31.5044 123.195 31.7475 122.818 31.7475H118.984C118.634 31.7237 118.344 31.4949 118.306 31.1993V21.7517C118.306 19.8498 118.553 17.066 115.913 17.066C114.982 17.066 114.127 17.619 113.702 18.4579C113.164 19.5209 113.095 20.5791 113.095 21.7517V31.1183C113.089 31.4663 112.756 31.7475 112.347 31.7475Z" fill="black"/>
<path fill-rule="evenodd" clip-rule="evenodd" d="M61.3985 23.4391C61.3985 24.7595 61.4362 25.8606 60.6832 27.0332C60.0755 27.9866 59.1074 28.5729 58.0371 28.5729C56.5688 28.5729 55.7083 27.5814 55.7083 26.118C55.7083 23.2294 58.6287 22.705 61.3985 22.705V23.4391ZM65.2548 31.6998C65.002 31.9 64.6363 31.9143 64.3512 31.7809C63.0819 30.8466 62.8507 30.4128 62.1569 29.5214C60.0593 31.4186 58.5696 31.9858 55.8535 31.9858C52.6319 31.9858 50.131 30.2269 50.131 26.7043C50.131 23.9539 51.8091 22.0806 54.2078 21.1654C56.2838 20.355 59.1827 20.212 61.3985 19.988V19.5495C61.3985 18.7439 61.4685 17.7905 60.9306 17.0946C60.4681 16.4702 59.5753 16.2128 58.7847 16.2128C57.3272 16.2128 56.031 16.8753 55.7137 18.2481C55.6492 18.5532 55.3964 18.8535 55.0468 18.8678L51.3412 18.5151C51.0292 18.4531 50.6796 18.2291 50.7711 17.8048C51.6208 13.8199 55.6868 12.6187 59.3225 12.6187C61.1834 12.6187 63.6144 13.0572 65.0827 14.3061C66.9435 15.8457 66.7661 17.9002 66.7661 20.1358V25.4173C66.7661 27.0046 67.5083 27.7005 68.2074 28.5586C68.4495 28.8636 68.5032 29.2307 68.1913 29.4595C67.4114 30.0362 66.0238 31.1088 65.2601 31.7094L65.2548 31.6998Z" fill="black"/>
<path fill-rule="evenodd" clip-rule="evenodd" d="M11.2675 23.4391C11.2675 24.7595 11.3051 25.8606 10.5522 27.0332C9.94443 27.9865 8.98172 28.5728 7.90606 28.5728C6.43779 28.5728 5.58265 27.5814 5.58265 26.118C5.58265 23.2294 8.50305 22.705 11.2675 22.705V23.4391ZM15.1237 31.6998C14.8709 31.9 14.5052 31.9143 14.2202 31.7808C12.9509 30.8466 12.725 30.4128 12.0258 29.5214C9.92829 31.4186 8.44389 31.9858 5.72248 31.9858C2.50627 31.9858 0 30.2269 0 26.7043C0 23.9539 1.6834 22.0806 4.07673 21.1654C6.15275 20.355 9.05164 20.212 11.2675 19.988V19.5495C11.2675 18.7439 11.3374 17.7905 10.805 17.0946C10.337 16.4702 9.44425 16.2128 8.65902 16.2128C7.20151 16.2128 5.89997 16.8753 5.58265 18.2481C5.51811 18.5532 5.26533 18.8535 4.92112 18.8678L1.21011 18.5151C0.898171 18.4531 0.553961 18.2291 0.640014 17.8048C1.49516 13.8199 5.55576 12.6187 9.19147 12.6187C11.0524 12.6187 13.4833 13.0572 14.9516 14.3061C16.8125 15.8457 16.635 17.9002 16.635 20.1358V25.4173C16.635 27.0046 17.3772 27.7005 18.0764 28.5585C18.3238 28.8636 18.3776 29.2306 18.0656 29.4595C17.2858 30.0362 15.8982 31.1087 15.1345 31.7093L15.1237 31.6998Z" fill="black"/>
</g>
</svg>
