<svg width="127" height="49" viewBox="0 0 127 49" fill="none" xmlns="http://www.w3.org/2000/svg">
<g style="mix-blend-mode:luminosity" clip-path="url(#clip0_333_1359)">
<path fill-rule="evenodd" clip-rule="evenodd" d="M125.59 31.182C120.335 39.0793 112.011 36.7877 109.512 34.9936C108.448 35.6333 106.582 37.0356 104.095 36.8737C98.797 36.529 96.8999 29.8193 96.8999 29.8193C96.938 29.8462 95.3218 30.3136 94.4484 30.3052C94.4372 32.2729 92.5181 36.9733 87.3387 36.9131C81.5268 36.846 80.3452 29.1718 80.3452 29.1718C80.3452 29.1718 79.7669 29.8836 77.5677 30.5925C77.6785 29.0808 77.5975 36.683 70.6317 36.7948C65.1247 36.8832 63.6382 29.0534 63.6382 29.0534C63.6382 29.0534 62.6828 29.933 60.8314 30.238C60.949 28.7017 60.7577 36.8206 53.791 36.7948C49.083 36.7775 47.4742 31.9716 47.5993 31.3046C47.759 30.4545 46.0082 36.9143 41.435 36.8137C39.5478 36.7646 38.1409 35.5535 37.258 33.939C36.0762 35.1376 34.3603 36.8137 32.4354 36.8137C28.9801 36.8137 27.4568 34.2523 27.7148 26.9366C27.7368 26.0689 27.6661 25.7276 26.6929 25.5978C26.1087 25.5114 25.5105 25.3479 24.8775 25.2616C24.6747 25.8617 22.954 36.6185 17.0371 36.8226C15.0521 36.8911 13.9667 35.3671 13.0753 34.236C11.709 35.8381 9.90525 36.8737 7.33572 36.8737C2.98313 36.8737 0.0175781 33.7551 0.0175781 29.9082C0.0175781 26.0611 2.98313 22.9429 7.33572 22.9429C8.1053 22.9429 8.32134 23.0406 9.0244 23.2225C7.57853 11.5551 10.9931 9.73168 13.9801 9.73168C16.8478 9.73168 21.7469 15.6307 14.8534 30.5937C16.3839 35.0568 19.6833 34.8044 21.2688 25.6169C21.5915 23.7493 20.7287 21.2292 22.0708 20.8774C24.5241 20.2346 24.7844 22.1633 25.9347 22.4846C27.151 22.8242 27.8609 22.7911 29.0285 23.0072C31.0238 23.3525 31.8024 24.3025 31.5593 26.4183C31.2674 29.0954 30.7567 32.9919 32.3137 33.4668C33.4365 33.8117 35.4865 31.748 35.8463 30.6188C36.2059 29.4896 36.281 29.1031 36.313 28.2749C36.3616 26.5048 36.4227 25.2072 36.7633 23.8685C36.909 23.3505 37.0752 23.0075 37.7365 22.984C38.2806 22.9717 39.2756 22.8265 39.7137 23.1287C40.2975 23.5175 40.2245 23.912 40.1575 24.9503C39.4785 39.7539 44.7045 32.3638 46.2627 26.4466C45.7078 19.7555 46.0888 9.8542 50.8196 9.68814C53.28 9.60178 54.3677 11.3487 54.4874 12.6526C54.8258 16.3354 52.9302 22.4358 50.4372 26.5384C49.0124 34.9094 56.6668 36.5645 57.8909 29.8828C55.8882 29.0389 53.7239 25.623 55.4851 23.9584C56.4734 23.0241 60.5871 24.3662 60.6545 27.2934C62.6724 26.8151 62.9418 25.8053 62.9698 25.9727C62.4151 19.2816 62.9295 9.85429 67.6607 9.68823C70.1208 9.60186 71.2084 11.3488 71.328 12.6527C71.6664 16.3355 69.7708 22.4359 67.2781 26.5385C65.8531 34.9094 73.5078 36.5647 74.7315 29.883C73.2488 29.6294 70.1188 25.9962 71.9248 23.9585C72.8899 22.8696 76.9886 25.134 77.4474 27.3904C79.3859 26.9042 79.6492 25.9265 79.677 26.091C79.1221 19.4002 79.6366 9.97287 84.3678 9.80681C86.8279 9.72044 87.9155 11.4674 88.0351 12.7713C88.3735 16.4541 86.4779 22.5546 83.9849 26.6572C82.5602 35.0282 90.2147 36.683 91.4388 30.0013C89.4012 29.7007 86.5054 25.8644 88.836 23.9019C89.7672 23.1178 93.3253 25.1533 94.1582 27.4754C95.3154 27.436 96.0357 27.0822 96.1901 27.0466C94.3427 19.1917 95.718 9.76701 100.807 9.68834C103.558 9.64586 106.248 11.0064 105.067 18.4793C103.94 25.6092 99.8902 28.6014 99.8996 28.6472C100.135 29.5013 102.214 36.6499 107.447 32.878C107.176 32.3344 106.905 31.7789 106.753 31.106C105.886 27.1864 107.59 22.7591 112.221 22.0435C114.874 21.6336 117.374 22.7785 117.769 25.3596C118.419 29.5832 114.116 32.6419 112.48 33.3054C111.747 32.9364 119.123 37.1293 123.501 28.7266C123.755 28.2469 124.061 28.2875 124.457 28.5348C124.737 28.7095 126.332 30.0486 125.59 31.182ZM10.5018 28.8704C10.2791 28.2802 9.82198 26.9797 9.66033 26.4162C8.7701 25.7301 8.13467 25.6186 6.99197 25.6186C4.45254 25.6186 2.95788 27.6995 2.95788 29.9434C2.95788 32.1871 4.58621 34.2683 7.12565 34.2683C9.32637 34.2683 11.0013 32.9421 11.5123 31.0648C11.1547 30.3329 10.7998 29.6603 10.5018 28.8704ZM13.9179 12.8201C12.1335 12.8201 11.5282 16.5927 11.6457 19.811C11.7496 22.6564 12.6467 25.1615 13.1121 26.2839C13.2302 26.4246 13.2083 26.333 13.3138 26.4822C16.412 20.4658 15.1269 12.8201 13.9179 12.8201ZM51.0745 12.9386C48.7683 12.7042 48.7832 21.2188 49.0695 23.1287C50.2672 21.4305 52.3479 13.3959 51.0745 12.9386ZM67.9151 12.9386C65.6089 12.7042 65.6238 21.2188 65.9102 23.1287C67.1078 21.4305 69.1886 13.3959 67.9151 12.9386ZM84.6223 13.0571C82.316 12.8227 82.3309 21.3373 82.6173 23.2473C83.8149 21.549 85.8957 13.5143 84.6223 13.0571ZM101.062 12.4402C97.4688 13.0797 98.3055 23.6976 98.8513 25.5598C103.084 20.4076 103.171 12.2467 101.062 12.4402ZM114.528 25.709C114.346 25.032 113.432 24.6701 112.802 24.7593C110.997 24.9777 109.248 26.9691 109.925 30.001C110.076 30.6763 110.453 31.2979 110.447 31.2772C114.485 28.8764 114.828 26.9845 114.528 25.709ZM38.4437 20.6404C37.9281 20.6405 37.424 20.5051 36.9953 20.2512C36.5665 19.9974 36.2322 19.6366 36.0348 19.2144C35.8374 18.7922 35.7857 18.3276 35.8864 17.8793C35.9868 17.4311 36.2352 17.0193 36.5998 16.6962C36.9643 16.373 37.4288 16.1529 37.9345 16.0637C38.4403 15.9746 38.9645 16.0203 39.4409 16.1952C39.9174 16.3701 40.3245 16.6663 40.6109 17.0463C40.8974 17.4263 41.0503 17.873 41.0503 18.33C41.0503 18.6334 40.9829 18.9338 40.8519 19.2141C40.721 19.4944 40.529 19.7491 40.2869 19.9637C40.0448 20.1782 39.7575 20.3484 39.4413 20.4645C39.125 20.5807 38.7861 20.6404 38.4437 20.6404Z" fill="#0D0C22"/>
</g>
<defs>
<clipPath id="clip0_333_1359">
<rect width="126.369" height="48" fill="white" transform="translate(0.0175781 0.618652)"/>
</clipPath>
</defs>
</svg>
