<svg width="129" height="49" viewBox="0 0 129 49" fill="none" xmlns="http://www.w3.org/2000/svg">
<g style="mix-blend-mode:luminosity" clip-path="url(#clip0_333_1360)">
<path d="M14.1807 13.7246V22.8123H4.76376V13.7246H0.292969V35.4179H4.76376V26.6253H14.1807V35.4179H18.6515V13.7246H14.1807Z" fill="#33475B"/>
<path d="M32.9597 28.4051C32.9597 29.2745 32.57 30.1083 31.8764 30.723C31.1828 31.3378 30.242 31.6831 29.2611 31.6831C28.2801 31.6831 27.3394 31.3378 26.6457 30.723C25.9521 30.1083 25.5624 29.2745 25.5624 28.4051V19.1135H21.3216V28.4051C21.3216 30.2695 22.1573 32.0576 23.6448 33.3759C25.1323 34.6943 27.1498 35.4349 29.2534 35.4349C31.357 35.4349 33.3745 34.6943 34.862 33.3759C36.3495 32.0576 37.1852 30.2695 37.1852 28.4051V19.1135H32.9597V28.4051Z" fill="#33475B"/>
<path d="M64.3811 20.0711C64.3811 18.1666 65.8027 17.5628 67.3601 17.5628C68.6153 17.5628 70.2735 18.4092 71.3578 19.4363L74.1353 16.5358C72.7487 14.8739 69.9362 13.7246 67.634 13.7246C63.0339 13.7246 59.7066 16.1126 59.7066 20.0711C59.7066 27.4154 69.8354 25.0858 69.8354 29.1957C69.8354 30.4635 68.4466 31.5836 66.8563 31.5836C64.3482 31.5836 63.5356 30.4965 62.3834 29.3471L59.3013 32.1874C61.2728 34.3327 63.7042 35.4218 66.6176 35.4218C70.9876 35.4218 74.5033 33.0048 74.5033 29.2268C74.5033 21.0729 64.3745 23.6064 64.3745 20.0711" fill="#33475B"/>
<path d="M127.042 31.9523C124.536 31.9523 123.824 30.9913 123.824 29.5197V23.0062H127.719V19.7058H123.824V15.3513L119.525 17.0616V30.3292C119.525 33.7228 122.166 35.4332 125.789 35.4332C126.358 35.4424 126.925 35.4021 127.485 35.3128L128.534 31.8901C128.061 31.9193 127.518 31.9484 127.042 31.9484" fill="#33475B"/>
<path d="M49.1025 19.223C47.0018 19.223 45.5363 19.7628 44.1191 20.9955V13.855H39.8717V27.0896C39.8717 32.0441 43.9132 35.4377 48.4541 35.4377C53.4922 35.4377 57.9236 31.9839 57.9236 27.3323C57.9236 22.7389 53.8449 19.225 49.1025 19.225V19.223ZM49.0762 31.65C48.1231 31.65 47.1913 31.3995 46.3988 30.9302C45.6063 30.4609 44.9887 29.7938 44.6239 29.0134C44.2592 28.2329 44.1638 27.3742 44.3497 26.5457C44.5356 25.7171 44.9946 24.9561 45.6686 24.3588C46.3425 23.7615 47.2012 23.3547 48.136 23.1899C49.0708 23.0251 50.0398 23.1097 50.9204 23.4329C51.8009 23.7562 52.5536 24.3036 53.0831 25.006C53.6126 25.7084 53.8952 26.5342 53.8952 27.3789C53.8952 28.5117 53.3875 29.598 52.4838 30.399C51.58 31.2 50.3543 31.65 49.0762 31.65Z" fill="#33475B"/>
<path d="M95.2208 27.1334C95.2208 22.4741 90.7982 19.0281 85.7513 19.0281C81.2104 19.0281 77.169 22.4216 77.169 27.3761V40.6185H81.4163V33.4683C82.8314 34.6991 84.299 35.2408 86.3975 35.2408C91.1399 35.2408 95.2186 31.7288 95.2186 27.1334H95.2208ZM91.1991 27.0868C91.1991 27.9316 90.9164 28.7574 90.3869 29.4597C89.8574 30.1621 89.1047 30.7096 88.2242 31.0328C87.3436 31.3561 86.3746 31.4407 85.4398 31.2759C84.505 31.1111 83.6464 30.7043 82.9724 30.107C82.2984 29.5096 81.8395 28.7486 81.6535 27.9201C81.4676 27.0916 81.563 26.2328 81.9277 25.4524C82.2925 24.6719 82.9102 24.0049 83.7027 23.5356C84.4952 23.0662 85.4269 22.8157 86.38 22.8157C87.6581 22.8157 88.8838 23.2657 89.7876 24.0667C90.6913 24.8677 91.1991 25.9541 91.1991 27.0868Z" fill="#33475B"/>
<path d="M108.9 18.9683V15.2253C109.458 14.9942 109.93 14.6274 110.262 14.1675C110.594 13.7076 110.772 13.1736 110.775 12.6277V12.5403C110.772 11.7773 110.429 11.0462 109.821 10.5067C109.212 9.96723 108.387 9.66324 107.526 9.66119H107.428C106.567 9.66324 105.742 9.96723 105.133 10.5067C104.525 11.0462 104.182 11.7773 104.179 12.5403V12.6277C104.182 13.1736 104.36 13.7076 104.692 14.1675C105.024 14.6274 105.496 14.9942 106.054 15.2253V18.9683C104.45 19.1858 102.938 19.7751 101.673 20.6767L90.0768 12.6801C90.1594 12.4163 90.2036 12.1442 90.2083 11.8705C90.2091 11.2281 89.9951 10.5999 89.5931 10.0654C89.1911 9.53083 88.6194 9.11392 87.9501 8.86738C87.2808 8.62084 86.544 8.55574 85.8329 8.68031C85.1219 8.80488 84.4685 9.11353 83.9554 9.56722C83.4422 10.0209 83.0924 10.5993 82.9502 11.2292C82.8079 11.8591 82.8796 12.5122 83.1562 13.106C83.4328 13.6998 83.9018 14.2075 84.504 14.5651C85.1061 14.9226 85.8144 15.1138 86.5392 15.1146C87.1759 15.1125 87.8006 14.9618 88.3507 14.6778L99.7522 22.5444C98.7253 23.9175 98.1895 25.5333 98.2149 27.1805C98.2403 28.8278 98.8257 30.4299 99.8946 31.7777L96.4249 34.8529C96.1463 34.7743 95.8563 34.7324 95.564 34.7287C94.9683 34.7287 94.386 34.8852 93.8907 35.1785C93.3954 35.4719 93.0093 35.8888 92.7814 36.3765C92.5534 36.8643 92.4938 37.4011 92.61 37.9189C92.7262 38.4367 93.013 38.9123 93.4343 39.2857C93.8555 39.659 94.3922 39.9132 94.9764 40.0162C95.5607 40.1192 96.1663 40.0664 96.7166 39.8643C97.267 39.6623 97.7374 39.3201 98.0683 38.8811C98.3993 38.4422 98.5759 37.9261 98.5759 37.3981C98.5719 37.139 98.5247 36.8819 98.4357 36.6351L101.868 33.5929C102.989 34.3515 104.29 34.8731 105.673 35.1179C107.055 35.3628 108.483 35.3244 109.846 35.0058C111.209 34.6871 112.472 34.0966 113.539 33.2793C114.606 32.4621 115.447 31.4396 116 30.29C116.553 29.1404 116.802 27.8941 116.728 26.6462C116.655 25.3982 116.26 24.1817 115.575 23.0895C114.89 21.9973 113.933 21.0582 112.776 20.344C111.619 19.6297 110.293 19.1592 108.9 18.9683ZM107.478 31.2807C106.539 31.2807 105.621 31.0339 104.84 30.5714C104.059 30.1089 103.45 29.4515 103.091 28.6824C102.731 27.9134 102.637 27.0671 102.82 26.2506C103.004 25.4341 103.456 24.6842 104.12 24.0955C104.784 23.5069 105.63 23.106 106.552 22.9436C107.473 22.7812 108.428 22.8646 109.295 23.1832C110.163 23.5017 110.905 24.0412 111.427 24.7334C111.949 25.4255 112.227 26.2393 112.227 27.0717C112.227 28.188 111.727 29.2586 110.836 30.0479C109.946 30.8373 108.738 31.2807 107.478 31.2807Z" fill="#FF7A59"/>
</g>
<defs>
<clipPath id="clip0_333_1360">
<rect width="128.626" height="48" fill="white" transform="translate(0.292969 0.618652)"/>
</clipPath>
</defs>
</svg>
