<svg width="126" height="49" viewBox="0 0 126 49" fill="none" xmlns="http://www.w3.org/2000/svg">
<g style="mix-blend-mode:luminosity" clip-path="url(#clip0_333_1362)">
<path d="M17.5012 38.6849C15.6171 38.9782 13.6999 39.0661 11.7166 39.3002L5.66728 23.5972V39.9742C3.78318 40.1499 2.06432 40.3843 0.279297 40.6187V10.6187H5.30389L12.1793 27.6404V10.6187H17.5012V38.6849ZM27.9138 21.605C29.9634 21.605 33.1036 21.5171 34.9877 21.5171V26.2045C32.6407 26.2045 29.8972 26.2045 27.9138 26.2924V33.2652C31.0212 33.0894 34.1284 32.8549 37.2685 32.7669V37.2784L22.6248 38.304V10.6187H37.2685V15.3062H27.9138V21.605ZM56.9366 15.3063H51.4494V36.8687C49.6644 36.8687 47.8793 36.8687 46.1607 36.9272V15.3063H40.6735V10.6187H56.9368L56.9366 15.3063ZM65.531 21.2828H72.7703V25.9702H65.531V36.6051H60.3409V10.6187H75.1172V15.3062H65.531V21.2828ZM83.7116 32.5034C86.7197 32.5618 89.7607 32.7673 92.7028 32.9135V37.5425C87.9759 37.2786 83.2489 37.0153 78.4228 36.9272V10.6187H83.7116V32.5034ZM97.1652 37.8648C98.851 37.9528 100.636 38.0407 102.355 38.2162V10.6187H97.1652V37.8648ZM125.527 10.6187L118.817 24.8863L125.527 40.6187C123.544 40.3843 121.56 40.062 119.577 39.769L115.776 31.0973L111.908 39.0661C109.991 38.7729 108.14 38.6849 106.223 38.4506L113.032 24.7103L106.884 10.6187H112.569L116.04 18.4995L119.742 10.6187H125.527V10.6187Z" fill="#D81F26"/>
</g>
<defs>
<clipPath id="clip0_333_1362">
<rect width="125.241" height="48" fill="white" transform="translate(0.279297 0.618652)"/>
</clipPath>
</defs>
</svg>
