<svg width="147" height="49" viewBox="0 0 147 49" fill="none" xmlns="http://www.w3.org/2000/svg">
<g style="mix-blend-mode:luminosity" clip-path="url(#clip0_333_1361)">
<path d="M51.525 35.3936V20.8385H51.8176L63.7715 35.3936H67.5333V14.0193H63.3536V28.5377H63.061L51.1071 14.0193H47.3453V35.3936H51.525ZM79.3618 35.7235C84.879 35.7235 88.2646 32.5706 88.2646 27.2912C88.2646 22.0484 84.879 18.8588 79.3618 18.8588C73.8864 18.8588 70.4591 22.0484 70.4591 27.2912C70.5009 32.5706 73.8446 35.7235 79.3618 35.7235ZM79.3618 32.6439C76.436 32.6439 74.7642 30.7008 74.7642 27.2912C74.7642 23.9182 76.436 21.9384 79.3618 21.9384C82.2876 21.9384 83.9595 23.9182 83.9595 27.2912C83.9595 30.7008 82.2876 32.6439 79.3618 32.6439ZM92.0681 15.2292V19.2987H89.1423V22.2317H92.0681V31.0674C92.0681 34.2204 93.74 35.4669 98.0033 35.4669C98.7974 35.4669 99.5916 35.3936 100.219 35.2836V32.4239C99.717 32.4606 99.3826 32.4972 98.7974 32.4972C97.042 32.4972 96.2478 31.8006 96.2478 30.1875V22.2317H100.219V19.2987H96.2478V15.2292H92.0681ZM102.726 35.3936H106.906V19.1887H102.726V35.3936ZM104.816 16.5123C106.196 16.5123 107.324 15.5225 107.324 14.3126C107.324 13.0661 106.196 12.0762 104.816 12.0762C103.437 12.0762 102.308 13.0661 102.308 14.3126C102.308 15.5225 103.437 16.5123 104.816 16.5123ZM118.358 35.7235C123.876 35.7235 127.261 32.5706 127.261 27.2912C127.261 22.0484 123.876 18.8588 118.358 18.8588C112.883 18.8588 109.456 22.0484 109.456 27.2912C109.456 32.5706 112.799 35.7235 118.358 35.7235ZM118.358 32.6439C115.433 32.6439 113.761 30.7008 113.761 27.2912C113.761 23.9182 115.433 21.9384 118.358 21.9384C121.242 21.9384 122.956 23.9182 122.956 27.2912C122.914 30.7008 121.242 32.6439 118.358 32.6439ZM129.727 35.3936H133.907V25.9713C133.907 23.5882 135.495 22.0851 137.961 22.0851C140.511 22.0851 141.681 23.3316 141.681 25.788V35.3936H145.861V24.9081C145.861 21.0218 143.604 18.8588 139.508 18.8588C136.749 18.8588 134.91 19.9586 134.032 21.7918H133.74V19.1887H129.685C129.727 19.1887 129.727 35.3936 129.727 35.3936Z" fill="black"/>
<path fill-rule="evenodd" clip-rule="evenodd" d="M7.26912 12.6512C8.48563 13.521 8.92564 13.4524 11.2034 13.315L32.6605 12.1706C33.1264 12.1706 32.7381 11.7585 32.5828 11.7128L29.011 9.44672C28.338 8.98893 27.4062 8.43958 25.672 8.57692L4.91376 9.92739C4.16315 9.99606 4.00785 10.3394 4.31844 10.5912L7.26912 12.6512ZM8.56328 17.0689V37.0285C8.56328 38.1043 9.15859 38.4934 10.5304 38.4248L34.1099 37.2116C35.4818 37.1429 35.637 36.4105 35.637 35.5407V15.7184C35.637 14.8486 35.2488 14.3679 34.4205 14.4366L9.77979 15.7184C8.87388 15.7871 8.56328 16.1991 8.56328 17.0689ZM31.8322 18.1447C31.9875 18.7398 31.8322 19.3578 31.1593 19.4265L30.0204 19.6325V34.3733C29.0368 34.8311 28.1309 35.1058 27.3544 35.1058C26.1379 35.1058 25.8273 34.7624 24.9214 33.7553L17.493 23.4322V33.412L19.8483 33.8698C19.8483 33.8698 19.8483 35.0829 17.9589 35.0829L12.7305 35.3576C12.5752 35.0829 12.7305 34.4191 13.2481 34.2818L14.6199 33.9384V20.7541L12.7305 20.6168C12.5752 20.0216 12.9634 19.1518 14.0246 19.0832L19.6413 18.7398L27.3803 29.1774V19.953L25.4132 19.747C25.2579 19.0145 25.8791 18.4652 26.6297 18.3965L31.8322 18.1447ZM3.17958 8.09624L24.792 6.69998C27.4321 6.49398 28.1309 6.63131 29.7875 7.70712L36.6724 11.9874C37.8112 12.7199 38.1995 12.9259 38.1995 13.727V37.2345C38.1995 38.6994 37.6042 39.5692 35.4817 39.7066L10.401 41.057C8.79623 41.1257 8.04562 40.9197 7.21736 39.9812L2.11838 34.1444C1.21247 33.0686 0.824219 32.2675 0.824219 31.329V10.431C0.824219 9.21782 1.44541 8.23357 3.17958 8.09624Z" fill="black"/>
</g>
<defs>
<clipPath id="clip0_333_1361">
<rect width="145.551" height="48" fill="white" transform="translate(0.824219 0.618652)"/>
</clipPath>
</defs>
</svg>
