<svg width="111" height="49" viewBox="0 0 111 49" fill="none" xmlns="http://www.w3.org/2000/svg">
<g style="mix-blend-mode:luminosity" clip-path="url(#clip0_333_1363)">
<path fill-rule="evenodd" clip-rule="evenodd" d="M90.3594 21.2159C90.7816 21.8615 90.9197 22.5961 90.9653 23.4219L91.0253 24.5226V32.2193L91.0865 33.3212C91.209 35.1206 92.7063 36.4512 94.7523 36.5644L95.989 36.6187V24.5226L96.0503 23.4219C96.1011 22.6053 96.2379 21.8569 96.6666 21.2066C97.1035 20.5397 97.7307 19.9863 98.4852 19.6021C99.2397 19.2179 100.095 19.0164 100.965 19.0178C101.835 19.0192 102.69 19.2235 103.443 19.6101C104.195 19.9968 104.82 20.5521 105.254 21.2205C105.677 21.8661 105.808 22.6146 105.859 23.4219L105.92 24.5191V32.2193L105.982 33.3212C106.109 35.1299 107.595 36.4604 109.647 36.5644L110.884 36.6187V23.4219C110.884 21.0883 109.838 18.8503 107.977 17.1999C106.116 15.5495 103.591 14.6219 100.958 14.621C99.5487 14.6196 98.1554 14.8849 96.8711 15.399C95.5868 15.913 94.441 16.6641 93.5104 17.602C92.5793 16.6645 91.4335 15.9136 90.1493 15.3993C88.8651 14.8851 87.472 14.6194 86.0629 14.6198C84.0013 14.6198 82.0882 15.1742 80.5036 16.1317C79.5366 15.1754 77.3734 14.6198 76.1315 14.6198V36.6187L77.3734 36.5644C79.4506 36.4431 80.9519 35.1484 81.0327 33.3212L81.0991 32.2193V24.5226L81.1604 23.4219C81.2125 22.5915 81.3428 21.8615 81.7663 21.2113C82.2036 20.5447 82.8305 19.9915 83.5844 19.6068C84.3383 19.2222 85.1929 19.0195 86.0629 19.0191C86.9334 19.0193 87.7887 19.2223 88.5428 19.6079C89.2969 19.9935 89.9234 20.548 90.3594 21.2159ZM5.38951 36.5655L6.63142 36.6187H25.247L25.1858 35.5214C25.0177 33.7127 23.5725 32.3914 21.5252 32.2736L20.2833 32.2193H9.11524L24.0051 19.018L23.9439 17.9219C23.8475 16.0947 22.341 14.7746 20.2833 14.6741L19.0414 14.6244L0.425781 14.6198L0.48703 15.7205C0.649925 17.5119 2.11598 18.8609 4.1463 18.9648L5.38951 19.0191H16.5576L1.66769 32.2205L1.72894 33.3212C1.85144 35.1345 3.32792 36.4477 5.38951 36.5644V36.5655ZM71.259 17.8399C72.4116 18.8613 73.326 20.0739 73.9498 21.4085C74.5736 22.7431 74.8947 24.1735 74.8947 25.6181C74.8947 27.0627 74.5736 28.4931 73.9498 29.8277C73.326 31.1623 72.4116 32.3749 71.259 33.3963C68.9302 35.4585 65.7729 36.617 62.4809 36.617C59.1889 36.617 56.0316 35.4585 53.7028 33.3963C48.8564 29.1009 48.8564 22.1352 53.7028 17.8399C54.8544 16.8189 56.2217 16.0089 57.7265 15.4562C59.2313 14.9035 60.8442 14.6189 62.4731 14.6187C64.1046 14.6177 65.7204 14.9017 67.228 15.4547C68.7355 16.0076 70.1053 16.8185 71.259 17.841V17.8399ZM67.747 20.9549C69.1429 22.193 69.9271 23.8718 69.9271 25.6221C69.9271 27.3725 69.1429 29.0512 67.747 30.2894C66.3499 31.5266 64.4558 32.2216 62.4809 32.2216C60.506 32.2216 58.6118 31.5266 57.2148 30.2894C55.8189 29.0512 55.0347 27.3725 55.0347 25.6221C55.0347 23.8718 55.8189 22.193 57.2148 20.9549C58.6118 19.7176 60.506 19.0226 62.4809 19.0226C64.4558 19.0226 66.3499 19.7176 67.747 20.9549ZM36.4255 14.6187C38.0545 14.619 39.6675 14.9038 41.1723 15.4567C42.6771 16.0096 44.0443 16.8198 45.1958 17.841C50.0435 22.1352 50.0435 29.1021 45.1958 33.3963C42.8671 35.4585 39.7097 36.617 36.4177 36.617C33.1257 36.617 29.9684 35.4585 27.6396 33.3963C22.7932 29.1009 22.7932 22.1352 27.6396 17.8399C28.7912 16.8189 30.1585 16.0089 31.6633 15.4562C33.1681 14.9035 34.781 14.6189 36.4099 14.6187H36.4255ZM41.6838 20.9525C43.0801 22.1908 43.8645 23.8697 43.8645 25.6204C43.8645 27.371 43.0801 29.05 41.6838 30.2882C40.2868 31.5254 38.3926 32.2204 36.4177 32.2204C34.4428 32.2204 32.5487 31.5254 31.1517 30.2882C29.7557 29.0501 28.9715 27.3713 28.9715 25.621C28.9715 23.8706 29.7557 22.1919 31.1517 20.9537C32.5487 19.7165 34.4428 19.0215 36.4177 19.0215C38.3926 19.0215 40.2868 19.7165 41.6838 20.9537V20.9525Z" fill="#2D8CFF"/>
</g>
<defs>
<clipPath id="clip0_333_1363">
<rect width="110.573" height="48" fill="white" transform="translate(0.425781 0.618652)"/>
</clipPath>
</defs>
</svg>
