<svg width="39" height="35" viewBox="0 0 39 35" fill="none" xmlns="http://www.w3.org/2000/svg">
<path d="M3.46424 4.05855C5.43855 1.9152 8.12945 0.758893 11.0438 0.770777C13.249 0.781874 15.22 1.47617 16.9955 2.85803C17.9027 3.55115 18.6757 4.38687 19.3923 5.37392C20.0939 4.38844 20.8992 3.53285 21.8037 2.84606C23.5739 1.46813 25.5811 0.786898 27.7474 0.793626C30.6617 0.805509 33.3672 1.97645 35.332 4.1285C37.2623 6.23725 38.3182 9.11501 38.3232 12.2295C38.3193 15.4219 37.1224 18.362 34.5675 21.465C32.2854 24.2439 28.9786 27.026 25.1436 30.3006C23.8364 31.4152 22.3561 32.668 20.8282 33.9943C20.4342 34.3442 19.8978 34.5599 19.3487 34.5377C18.7952 34.5544 18.3068 34.3419 17.8749 33.978C16.3328 32.6224 14.8599 31.3533 13.564 30.2618C9.75413 26.996 6.4453 24.1807 4.15691 21.401C1.58783 18.3139 0.423916 15.3452 0.427738 12.1529C0.46173 9.04274 1.53321 6.16735 3.46424 4.05855Z" fill="white"/>
</svg>
