<svg width="44" height="61" viewBox="0 0 44 61" fill="none" xmlns="http://www.w3.org/2000/svg">
<path d="M40.7519 20.5658C41.0098 30.0889 26.4704 53.3828 22.9971 58.8419C22.6438 59.4157 21.8208 59.4327 21.4292 58.8705C18.7403 55.1279 9.83536 42.544 4.9295 32.1997C2.96148 28.0938 1.64517 24.336 1.5782 21.6315C1.27124 10.8161 9.79936 1.79222 20.6104 1.48573C31.4269 1.2574 40.4449 9.75034 40.7519 20.5658Z" fill="black"/>
<path d="M27.9165 27.0208C31.1713 23.2873 30.7843 17.621 27.0522 14.3647C23.32 11.1084 17.6559 11.4952 14.4011 15.2287C11.1463 18.9622 11.5333 24.6285 15.2655 27.8848C18.9977 31.1411 24.6618 30.7542 27.9165 27.0208Z" fill="#B9FF66"/>
</svg>
